<svg xmlns="http://www.w3.org/2000/svg" xmlns:xlink="http://www.w3.org/1999/xlink" width="500" zoomAndPan="magnify" viewBox="0 0 375 374.999991" height="500" preserveAspectRatio="xMidYMid meet" version="1.0"><defs><g/><clipPath id="7effeafbcf"><path d="M 0 0 L 321 0 L 321 321 L 0 321 Z M 0 0 " clip-rule="nonzero"/></clipPath><clipPath id="34fd779ba0"><path d="M 320.695312 55.453125 L 55.53125 320.617188 L -77.582031 187.507812 L 187.585938 -77.660156 Z M 320.695312 55.453125 " clip-rule="nonzero"/></clipPath><clipPath id="d12c7aa2d1"><path d="M 320.695312 55.453125 L 55.53125 320.617188 L -77.582031 187.507812 L 187.585938 -77.660156 Z M 320.695312 55.453125 " clip-rule="nonzero"/></clipPath><clipPath id="7d9f0befe2"><path d="M 54 53 L 375 53 L 375 375 L 54 375 Z M 54 53 " clip-rule="nonzero"/></clipPath><clipPath id="9539418a44"><path d="M 53.90625 318.996094 L 319.074219 53.832031 L 452.1875 186.941406 L 187.019531 452.109375 Z M 53.90625 318.996094 " clip-rule="nonzero"/></clipPath><clipPath id="17822362e8"><path d="M 53.90625 318.996094 L 319.074219 53.832031 L 452.1875 186.941406 L 187.019531 452.109375 Z M 53.90625 318.996094 " clip-rule="nonzero"/></clipPath></defs><g clip-path="url(#7effeafbcf)"><g clip-path="url(#34fd779ba0)"><g clip-path="url(#d12c7aa2d1)"><path fill="#191919" d="M 55.632812 320.519531 L 55.003906 319.894531 C 37.121094 302.007812 23.273438 281.15625 13.847656 257.914062 C 4.746094 235.464844 0.128906 211.746094 0.128906 187.414062 C 0.128906 163.078125 4.746094 139.359375 13.851562 116.910156 C 23.273438 93.667969 37.121094 72.816406 55.003906 54.933594 C 72.890625 37.046875 93.742188 23.203125 116.984375 13.777344 C 139.433594 4.671875 163.152344 0.0585938 187.484375 0.0585938 C 211.820312 0.0585938 235.539062 4.671875 257.988281 13.777344 C 281.230469 23.199219 302.082031 37.046875 319.964844 54.933594 L 320.59375 55.558594 Z M 55.632812 320.519531 " fill-opacity="1" fill-rule="nonzero"/></g></g></g><g clip-path="url(#7d9f0befe2)"><g clip-path="url(#9539418a44)"><g clip-path="url(#17822362e8)"><path fill="#0cc0df" d="M 318.972656 53.929688 L 319.597656 54.554688 C 337.484375 72.441406 351.332031 93.292969 360.753906 116.535156 C 369.859375 138.984375 374.472656 162.703125 374.472656 187.035156 C 374.472656 211.371094 369.859375 235.089844 360.753906 257.539062 C 351.332031 280.78125 337.484375 301.632812 319.597656 319.515625 C 301.714844 337.402344 280.863281 351.25 257.621094 360.671875 C 235.171875 369.777344 211.453125 374.390625 187.117188 374.390625 C 162.785156 374.390625 139.066406 369.777344 116.617188 360.671875 C 93.375 351.25 72.523438 337.402344 54.636719 319.515625 L 54.011719 318.890625 Z M 318.972656 53.929688 " fill-opacity="1" fill-rule="nonzero"/></g></g></g><g fill="#191919" fill-opacity="1"><g transform="translate(195.453332, 301.464647)"><g><path d="M 76.203125 -66.59375 C 83.242188 -66.59375 88.613281 -64.113281 92.3125 -59.15625 C 95.832031 -54.28125 97.59375 -47.421875 97.59375 -38.578125 L 97.59375 -26.671875 C 97.59375 -18.910156 95.878906 -12.546875 92.453125 -7.578125 C 88.929688 -2.523438 83.425781 0 75.9375 0 L 14.890625 0 C 14.253906 0 13.441406 -0.242188 12.453125 -0.734375 C 11.460938 -1.234375 10.96875 -2.523438 10.96875 -4.609375 L 10.96875 -15.4375 C 10.96875 -17.507812 11.460938 -18.789062 12.453125 -19.28125 C 13.441406 -19.78125 14.253906 -20.03125 14.890625 -20.03125 L 72.6875 -20.03125 C 73.863281 -20.03125 74.695312 -20.234375 75.1875 -20.640625 C 75.6875 -21.046875 76.070312 -21.429688 76.34375 -21.796875 C 77.15625 -23.148438 77.5625 -25.046875 77.5625 -27.484375 L 77.5625 -39.125 C 77.5625 -42.457031 77.019531 -44.53125 75.9375 -45.34375 C 74.851562 -46.15625 73.816406 -46.5625 72.828125 -46.5625 L 32.21875 -46.5625 C 29.414062 -46.5625 26.546875 -46.921875 23.609375 -47.640625 C 20.679688 -48.367188 18.179688 -50.128906 16.109375 -52.921875 C 12.585938 -57.890625 10.828125 -65.109375 10.828125 -74.578125 L 10.828125 -84.875 C 10.828125 -92.8125 12.585938 -99.21875 16.109375 -104.09375 C 19.628906 -109.050781 25.085938 -111.53125 32.484375 -111.53125 L 90.828125 -111.53125 C 91.367188 -111.53125 92.132812 -111.28125 93.125 -110.78125 C 94.113281 -110.289062 94.609375 -109.007812 94.609375 -106.9375 L 94.609375 -96.109375 C 94.609375 -94.023438 94.113281 -92.734375 93.125 -92.234375 C 92.132812 -91.742188 91.367188 -91.5 90.828125 -91.5 L 35.734375 -91.5 C 34.554688 -91.5 33.71875 -91.316406 33.21875 -90.953125 C 32.726562 -90.597656 32.347656 -90.195312 32.078125 -89.75 C 31.359375 -88.300781 31 -86.40625 31 -84.0625 L 31 -74.046875 C 31 -70.703125 31.515625 -68.625 32.546875 -67.8125 C 33.585938 -67 34.601562 -66.59375 35.59375 -66.59375 Z M 76.203125 -66.59375 "/></g></g></g><g fill="#ffffff" fill-opacity="1"><g transform="translate(74.137507, 189.817956)"><g><path d="M 92.03125 -111.203125 C 92.570312 -111.203125 93.335938 -110.953125 94.328125 -110.453125 C 95.316406 -109.960938 95.8125 -108.640625 95.8125 -106.484375 L 95.8125 -95.8125 C 95.8125 -93.75 95.316406 -92.46875 94.328125 -91.96875 C 93.335938 -91.476562 92.570312 -91.234375 92.03125 -91.234375 L 14.4375 -91.234375 C 13.894531 -91.234375 13.148438 -91.5 12.203125 -92.03125 C 11.265625 -92.570312 10.796875 -93.878906 10.796875 -95.953125 L 10.796875 -106.34375 C 10.796875 -108.5 11.265625 -109.847656 12.203125 -110.390625 C 13.148438 -110.929688 13.894531 -111.203125 14.4375 -111.203125 Z M 91.359375 -65.984375 C 91.898438 -65.984375 92.664062 -65.710938 93.65625 -65.171875 C 94.644531 -64.640625 95.140625 -63.335938 95.140625 -61.265625 L 95.140625 -50.609375 C 95.140625 -48.535156 94.644531 -47.25 93.65625 -46.75 C 92.664062 -46.257812 91.898438 -46.015625 91.359375 -46.015625 L 31.046875 -46.015625 C 31.046875 -46.015625 31.019531 -45.023438 30.96875 -43.046875 C 30.925781 -41.066406 30.90625 -38.503906 30.90625 -35.359375 C 30.90625 -32.210938 30.878906 -28.859375 30.828125 -25.296875 C 30.785156 -21.742188 30.765625 -18.394531 30.765625 -15.25 C 30.765625 -12.101562 30.765625 -9.539062 30.765625 -7.5625 C 30.765625 -5.582031 30.765625 -4.59375 30.765625 -4.59375 C 30.765625 -2.519531 30.269531 -1.210938 29.28125 -0.671875 C 28.289062 -0.128906 27.523438 0.140625 26.984375 0.140625 L 14.578125 0.140625 C 14.035156 0.140625 13.269531 -0.128906 12.28125 -0.671875 C 11.289062 -1.210938 10.796875 -2.519531 10.796875 -4.59375 L 11.0625 -56.6875 C 11.25 -57.3125 11.453125 -57.914062 11.671875 -58.5 C 11.898438 -59.082031 12.148438 -59.644531 12.421875 -60.1875 C 14.578125 -63.695312 17.679688 -65.585938 21.734375 -65.859375 Z M 91.359375 -65.984375 "/></g></g></g></svg>