<svg xmlns="http://www.w3.org/2000/svg" xmlns:xlink="http://www.w3.org/1999/xlink" zoomAndPan="magnify" preserveAspectRatio="xMidYMid meet" version="1.0" viewBox="89.62 0 367.25 792.27"><defs><g/><clipPath id="c22c1e8c5b"><path d="M 89.640625 0 L 273.242188 0 L 273.242188 792 L 89.640625 792 Z M 89.640625 0 " clip-rule="nonzero"/></clipPath><clipPath id="9b82078183"><path d="M 273.242188 240.746094 L 456.839844 240.746094 L 456.839844 792 L 273.242188 792 Z M 273.242188 240.746094 " clip-rule="nonzero"/></clipPath></defs><g clip-path="url(#c22c1e8c5b)"><path fill="#191919" d="M 89.640625 0 L 273.242188 0 L 273.242188 791.773438 L 89.640625 791.773438 Z M 89.640625 0 " fill-opacity="1" fill-rule="nonzero"/></g><g clip-path="url(#9b82078183)"><path fill="#0cc0df" d="M 273.242188 240.746094 L 456.839844 240.746094 L 456.839844 792.261719 L 273.242188 792.261719 Z M 273.242188 240.746094 " fill-opacity="1" fill-rule="nonzero"/></g><g fill="#ffffff" fill-opacity="1"><g transform="translate(214.167765, 754.35625)"><g><path d="M -72.78125 -60.234375 C -72.78125 -60.585938 -72.617188 -61.085938 -72.296875 -61.734375 C -71.972656 -62.390625 -71.101562 -62.71875 -69.6875 -62.71875 L -62.71875 -62.71875 C -61.363281 -62.71875 -60.519531 -62.390625 -60.1875 -61.734375 C -59.863281 -61.085938 -59.703125 -60.585938 -59.703125 -60.234375 L -59.703125 -9.453125 C -59.703125 -9.097656 -59.878906 -8.609375 -60.234375 -7.984375 C -60.585938 -7.367188 -61.441406 -7.0625 -62.796875 -7.0625 L -69.609375 -7.0625 C -71.015625 -7.0625 -71.894531 -7.367188 -72.25 -7.984375 C -72.601562 -8.609375 -72.78125 -9.097656 -72.78125 -9.453125 Z M -43.1875 -59.796875 C -43.1875 -60.148438 -43.007812 -60.648438 -42.65625 -61.296875 C -42.300781 -61.941406 -41.445312 -62.265625 -40.09375 -62.265625 L -33.125 -62.265625 C -31.769531 -62.265625 -30.929688 -61.941406 -30.609375 -61.296875 C -30.285156 -60.648438 -30.125 -60.148438 -30.125 -59.796875 L -30.125 -20.3125 C -30.125 -20.3125 -29.472656 -20.296875 -28.171875 -20.265625 C -26.878906 -20.242188 -25.203125 -20.234375 -23.140625 -20.234375 C -21.078125 -20.234375 -18.882812 -20.21875 -16.5625 -20.1875 C -14.238281 -20.15625 -12.046875 -20.140625 -9.984375 -20.140625 C -7.921875 -20.140625 -6.238281 -20.140625 -4.9375 -20.140625 C -3.644531 -20.140625 -3 -20.140625 -3 -20.140625 C -1.644531 -20.140625 -0.789062 -19.816406 -0.4375 -19.171875 C -0.0820312 -18.523438 0.09375 -18.023438 0.09375 -17.671875 L 0.09375 -9.546875 C 0.09375 -9.191406 -0.0820312 -8.6875 -0.4375 -8.03125 C -0.789062 -7.382812 -1.644531 -7.0625 -3 -7.0625 L -37.09375 -7.25 C -37.507812 -7.363281 -37.90625 -7.492188 -38.28125 -7.640625 C -38.664062 -7.785156 -39.035156 -7.945312 -39.390625 -8.125 C -41.691406 -9.539062 -42.929688 -11.570312 -43.109375 -14.21875 Z M -43.1875 -59.796875 "/></g></g></g><g fill="#ffffff" fill-opacity="1"><g transform="translate(214.167765, 680.163886)"><g><path d="M -13.078125 -58.03125 C -13.078125 -58.445312 -12.898438 -58.960938 -12.546875 -59.578125 C -12.191406 -60.191406 -11.335938 -60.5 -9.984375 -60.5 L -3 -60.5 C -1.644531 -60.5 -0.789062 -60.191406 -0.4375 -59.578125 C -0.0820312 -58.960938 0.09375 -58.445312 0.09375 -58.03125 L 0.09375 -28.890625 C 0.09375 -24.992188 -0.40625 -21.691406 -1.40625 -18.984375 C -2.351562 -16.222656 -4.003906 -13.925781 -6.359375 -12.09375 C -8.484375 -10.394531 -11.367188 -9.128906 -15.015625 -8.296875 C -18.609375 -7.472656 -22.816406 -7.0625 -27.640625 -7.0625 L -69.6875 -7.0625 C -71.101562 -7.0625 -71.972656 -7.382812 -72.296875 -8.03125 C -72.617188 -8.6875 -72.78125 -9.21875 -72.78125 -9.625 L -72.78125 -17.75 C -72.78125 -18.101562 -72.617188 -18.601562 -72.296875 -19.25 C -71.972656 -19.90625 -71.101562 -20.234375 -69.6875 -20.234375 L -26.140625 -20.234375 C -24.847656 -20.234375 -23.640625 -20.257812 -22.515625 -20.3125 C -21.398438 -20.375 -20.398438 -20.492188 -19.515625 -20.671875 C -17.929688 -20.898438 -16.640625 -21.398438 -15.640625 -22.171875 C -14.691406 -22.753906 -14.039062 -23.609375 -13.6875 -24.734375 C -13.28125 -25.910156 -13.078125 -27.441406 -13.078125 -29.328125 Z M -13.078125 -58.03125 "/></g></g></g><g fill="#ffffff" fill-opacity="1"><g transform="translate(214.167765, 608.179626)"><g><path d="M -64.5625 -54.40625 L -3.359375 -79.234375 C -2.535156 -79.585938 -1.828125 -79.675781 -1.234375 -79.5 C -1.003906 -79.4375 -0.722656 -79.269531 -0.390625 -79 C -0.0664062 -78.738281 0.09375 -78.253906 0.09375 -77.546875 L 0.09375 -68.09375 C 0.09375 -66.863281 -0.554688 -66.015625 -1.859375 -65.546875 L -56.53125 -43.640625 C -56.644531 -43.578125 -56.703125 -43.546875 -56.703125 -43.546875 L -56.703125 -43.1875 C -56.703125 -43.1875 -56.6875 -43.171875 -56.65625 -43.140625 C -56.632812 -43.117188 -56.5625 -43.078125 -56.4375 -43.015625 L -27.828125 -31.703125 L -27.828125 -42.65625 C -27.828125 -43.894531 -27.238281 -44.75 -26.0625 -45.21875 L -18.203125 -48.40625 C -17.191406 -48.695312 -16.335938 -48.578125 -15.640625 -48.046875 C -14.804688 -47.578125 -14.390625 -46.8125 -14.390625 -45.75 L -14.390625 -26.40625 L -1.765625 -21.375 C -0.523438 -20.90625 0.09375 -20.082031 0.09375 -18.90625 L 0.09375 -9.1875 C 0.09375 -8.476562 -0.0664062 -7.988281 -0.390625 -7.71875 C -0.722656 -7.457031 -1.003906 -7.300781 -1.234375 -7.25 C -1.765625 -7.070312 -2.472656 -7.128906 -3.359375 -7.421875 L -64.5625 -32.0625 C -67.6875 -33.238281 -69.835938 -34.535156 -71.015625 -35.953125 C -71.128906 -36.128906 -71.273438 -36.332031 -71.453125 -36.5625 C -71.628906 -36.800781 -71.78125 -37.039062 -71.90625 -37.28125 C -73.132812 -39.039062 -73.75 -41.070312 -73.75 -43.375 C -73.75 -45.78125 -73.015625 -47.953125 -71.546875 -49.890625 C -70.078125 -51.835938 -68.191406 -53.164062 -65.890625 -53.875 C -65.710938 -54 -65.503906 -54.101562 -65.265625 -54.1875 C -65.035156 -54.28125 -64.800781 -54.351562 -64.5625 -54.40625 Z M -64.5625 -54.40625 "/></g></g></g><g fill="#ffffff" fill-opacity="1"><g transform="translate(214.167765, 517.029007)"><g><path d="M -72.78125 -68.09375 C -72.78125 -68.507812 -72.617188 -69.039062 -72.296875 -69.6875 C -71.972656 -70.332031 -71.132812 -70.65625 -69.78125 -70.65625 L -62.890625 -70.65625 C -61.421875 -70.65625 -60.519531 -70.332031 -60.1875 -69.6875 C -59.863281 -69.039062 -59.703125 -68.507812 -59.703125 -68.09375 L -59.703125 -45.40625 L -3 -45.40625 C -1.644531 -45.40625 -0.804688 -45.09375 -0.484375 -44.46875 C -0.160156 -43.851562 0 -43.335938 0 -42.921875 L 0 -34.796875 C 0 -34.441406 -0.160156 -33.941406 -0.484375 -33.296875 C -0.804688 -32.648438 -1.644531 -32.328125 -3 -32.328125 L -59.703125 -32.328125 L -59.703125 -9.625 C -59.703125 -9.21875 -59.863281 -8.6875 -60.1875 -8.03125 C -60.519531 -7.382812 -61.421875 -7.0625 -62.890625 -7.0625 L -69.78125 -7.0625 C -71.132812 -7.0625 -71.972656 -7.382812 -72.296875 -8.03125 C -72.617188 -8.6875 -72.78125 -9.21875 -72.78125 -9.625 Z M -72.78125 -68.09375 "/></g></g></g><g fill="#ffffff" fill-opacity="1"><g transform="translate(214.167765, 434.887463)"><g><path d="M -13.078125 -58.03125 C -13.078125 -58.445312 -12.898438 -58.960938 -12.546875 -59.578125 C -12.191406 -60.191406 -11.335938 -60.5 -9.984375 -60.5 L -3 -60.5 C -1.644531 -60.5 -0.789062 -60.191406 -0.4375 -59.578125 C -0.0820312 -58.960938 0.09375 -58.445312 0.09375 -58.03125 L 0.09375 -28.890625 C 0.09375 -24.992188 -0.40625 -21.691406 -1.40625 -18.984375 C -2.351562 -16.222656 -4.003906 -13.925781 -6.359375 -12.09375 C -8.484375 -10.394531 -11.367188 -9.128906 -15.015625 -8.296875 C -18.609375 -7.472656 -22.816406 -7.0625 -27.640625 -7.0625 L -69.6875 -7.0625 C -71.101562 -7.0625 -71.972656 -7.382812 -72.296875 -8.03125 C -72.617188 -8.6875 -72.78125 -9.21875 -72.78125 -9.625 L -72.78125 -17.75 C -72.78125 -18.101562 -72.617188 -18.601562 -72.296875 -19.25 C -71.972656 -19.90625 -71.101562 -20.234375 -69.6875 -20.234375 L -26.140625 -20.234375 C -24.847656 -20.234375 -23.640625 -20.257812 -22.515625 -20.3125 C -21.398438 -20.375 -20.398438 -20.492188 -19.515625 -20.671875 C -17.929688 -20.898438 -16.640625 -21.398438 -15.640625 -22.171875 C -14.691406 -22.753906 -14.039062 -23.609375 -13.6875 -24.734375 C -13.28125 -25.910156 -13.078125 -27.441406 -13.078125 -29.328125 Z M -13.078125 -58.03125 "/></g></g></g><g fill="#ffffff" fill-opacity="1"><g transform="translate(214.167765, 362.903191)"><g><path d="M -72.78125 -17.671875 C -72.78125 -18.023438 -72.601562 -18.523438 -72.25 -19.171875 C -71.894531 -19.816406 -71.039062 -20.140625 -69.6875 -20.140625 L -3 -20.140625 C -1.644531 -20.140625 -0.789062 -19.816406 -0.4375 -19.171875 C -0.0820312 -18.523438 0.09375 -18.023438 0.09375 -17.671875 L 0.09375 -9.546875 C 0.09375 -9.191406 -0.0820312 -8.6875 -0.4375 -8.03125 C -0.789062 -7.382812 -1.644531 -7.0625 -3 -7.0625 L -69.6875 -7.0625 C -71.039062 -7.0625 -71.894531 -7.382812 -72.25 -8.03125 C -72.601562 -8.6875 -72.78125 -9.191406 -72.78125 -9.546875 Z M -72.78125 -17.671875 "/></g></g></g><g fill="#ffffff" fill-opacity="1"><g transform="translate(214.167765, 331.283122)"><g><path d="M -72.78125 -69.609375 C -72.78125 -69.953125 -72.617188 -70.445312 -72.296875 -71.09375 C -71.972656 -71.75 -71.101562 -72.078125 -69.6875 -72.078125 L -11.3125 -72.078125 C -7.007812 -72.078125 -4.0625 -71.457031 -2.46875 -70.21875 C -0.757812 -68.976562 0.09375 -67.066406 0.09375 -64.484375 L 0.09375 -58.03125 C 0.09375 -56.851562 0.00390625 -55.851562 -0.171875 -55.03125 C -0.296875 -54.613281 -0.429688 -54.195312 -0.578125 -53.78125 C -0.722656 -53.375 -0.910156 -52.992188 -1.140625 -52.640625 C -1.554688 -51.929688 -2.207031 -51.285156 -3.09375 -50.703125 C -3.5 -50.410156 -3.96875 -50.085938 -4.5 -49.734375 C -5.03125 -49.378906 -5.648438 -49.023438 -6.359375 -48.671875 L -56 -20.671875 C -56.113281 -20.609375 -56.1875 -20.546875 -56.21875 -20.484375 C -56.25 -20.429688 -56.265625 -20.40625 -56.265625 -20.40625 L -56.265625 -19.96875 C -56.265625 -19.96875 -56.25 -19.96875 -56.21875 -19.96875 C -56.1875 -19.96875 -56.144531 -19.96875 -56.09375 -19.96875 L -3 -19.96875 C -1.644531 -19.96875 -0.789062 -19.65625 -0.4375 -19.03125 C -0.0820312 -18.414062 0.09375 -17.898438 0.09375 -17.484375 L 0.09375 -9.625 C 0.09375 -9.21875 -0.0820312 -8.6875 -0.4375 -8.03125 C -0.789062 -7.382812 -1.644531 -7.0625 -3 -7.0625 L -61.390625 -7.0625 C -65.691406 -7.0625 -68.664062 -7.679688 -70.3125 -8.921875 C -71.957031 -10.210938 -72.78125 -12.125 -72.78125 -14.65625 L -72.78125 -21.28125 C -72.78125 -21.875 -72.765625 -22.4375 -72.734375 -22.96875 C -72.703125 -23.5 -72.660156 -23.96875 -72.609375 -24.375 C -72.429688 -25.320312 -72.078125 -26.148438 -71.546875 -26.859375 C -71.128906 -27.441406 -70.453125 -28.054688 -69.515625 -28.703125 C -69.097656 -28.992188 -68.625 -29.300781 -68.09375 -29.625 C -67.570312 -29.957031 -66.984375 -30.300781 -66.328125 -30.65625 L -16.6875 -58.5625 C -16.507812 -58.625 -16.421875 -58.710938 -16.421875 -58.828125 L -16.421875 -59.265625 C -16.484375 -59.265625 -16.515625 -59.265625 -16.515625 -59.265625 C -16.515625 -59.265625 -16.546875 -59.265625 -16.609375 -59.265625 L -69.6875 -59.265625 C -71.101562 -59.265625 -71.972656 -59.570312 -72.296875 -60.1875 C -72.617188 -60.8125 -72.78125 -61.328125 -72.78125 -61.734375 Z M -72.78125 -69.609375 "/></g></g></g><g fill="#ffffff" fill-opacity="1"><g transform="translate(214.167765, 247.728392)"><g><path d="M -15.8125 -60.15625 C -15.8125 -60.5625 -15.648438 -61.085938 -15.328125 -61.734375 C -15.003906 -62.390625 -14.164062 -62.71875 -12.8125 -62.71875 L -3.09375 -62.71875 C -1.738281 -62.71875 -0.898438 -62.390625 -0.578125 -61.734375 C -0.253906 -61.085938 -0.09375 -60.5625 -0.09375 -60.15625 L -0.09375 -28.796875 C -0.09375 -26.847656 -0.207031 -25.050781 -0.4375 -23.40625 C -0.675781 -21.757812 -1.0625 -20.257812 -1.59375 -18.90625 C -2.59375 -16.019531 -4.210938 -13.722656 -6.453125 -12.015625 C -8.742188 -10.242188 -11.628906 -8.976562 -15.109375 -8.21875 C -16.578125 -7.914062 -18.191406 -7.660156 -19.953125 -7.453125 C -21.722656 -7.253906 -23.640625 -7.125 -25.703125 -7.0625 L -26.140625 -7.0625 L -37.28125 -7.25 C -37.925781 -7.425781 -38.660156 -7.75 -39.484375 -8.21875 C -41.773438 -9.507812 -43.007812 -11.507812 -43.1875 -14.21875 L -43.28125 -59.796875 C -43.28125 -60.148438 -43.117188 -60.648438 -42.796875 -61.296875 C -42.472656 -61.941406 -41.632812 -62.265625 -40.28125 -62.265625 L -33.296875 -62.265625 C -31.941406 -62.265625 -31.085938 -61.941406 -30.734375 -61.296875 C -30.378906 -60.648438 -30.203125 -60.148438 -30.203125 -59.796875 L -30.203125 -20.3125 C -30.203125 -20.3125 -29.878906 -20.296875 -29.234375 -20.265625 C -28.585938 -20.242188 -27.851562 -20.21875 -27.03125 -20.1875 C -26.207031 -20.15625 -25.46875 -20.140625 -24.8125 -20.140625 C -24.164062 -20.140625 -23.84375 -20.140625 -23.84375 -20.140625 C -23.613281 -20.203125 -23.363281 -20.234375 -23.09375 -20.234375 C -22.832031 -20.234375 -22.582031 -20.257812 -22.34375 -20.3125 C -20.695312 -20.550781 -19.375 -21.050781 -18.375 -21.8125 C -17.488281 -22.519531 -16.835938 -23.40625 -16.421875 -24.46875 C -16.242188 -25.113281 -16.097656 -25.800781 -15.984375 -26.53125 C -15.867188 -27.269531 -15.8125 -28.113281 -15.8125 -29.0625 Z M -42.484375 -14.84375 Z M -72.953125 -60.234375 C -72.953125 -60.585938 -72.773438 -61.085938 -72.421875 -61.734375 C -72.078125 -62.390625 -71.226562 -62.71875 -69.875 -62.71875 L -62.890625 -62.71875 C -61.535156 -62.71875 -60.679688 -62.390625 -60.328125 -61.734375 C -59.972656 -61.085938 -59.796875 -60.585938 -59.796875 -60.234375 L -59.890625 -9.453125 C -59.890625 -9.097656 -60.050781 -8.609375 -60.375 -7.984375 C -60.695312 -7.367188 -61.535156 -7.0625 -62.890625 -7.0625 L -69.78125 -7.0625 C -71.195312 -7.0625 -72.078125 -7.367188 -72.421875 -7.984375 C -72.773438 -8.609375 -72.953125 -9.097656 -72.953125 -9.453125 Z M -72.953125 -60.234375 "/></g></g></g><g fill="#ffffff" fill-opacity="1"><g transform="translate(214.167765, 173.536028)"><g><path d="M -56.359375 -67.390625 C -52.640625 -68.273438 -48.28125 -68.71875 -43.28125 -68.71875 L -29.40625 -68.71875 C -24.40625 -68.71875 -20.050781 -68.273438 -16.34375 -67.390625 C -14.519531 -66.984375 -12.828125 -66.410156 -11.265625 -65.671875 C -9.703125 -64.929688 -8.332031 -64.09375 -7.15625 -63.15625 C -4.675781 -61.207031 -2.847656 -58.703125 -1.671875 -55.640625 C -0.492188 -52.640625 0.09375 -49.078125 0.09375 -44.953125 L 0.09375 -14.75 C 0.09375 -13.394531 -0.242188 -12.113281 -0.921875 -10.90625 C -1.597656 -9.695312 -2.523438 -8.738281 -3.703125 -8.03125 C -4.535156 -7.5625 -5.453125 -7.238281 -6.453125 -7.0625 L -66.78125 -7.15625 C -67.132812 -7.269531 -67.5 -7.398438 -67.875 -7.546875 C -68.257812 -7.691406 -68.628906 -7.851562 -68.984375 -8.03125 C -71.273438 -9.445312 -72.507812 -11.476562 -72.6875 -14.125 L -72.78125 -14.125 L -72.78125 -44.953125 C -72.78125 -49.015625 -72.191406 -52.578125 -71.015625 -55.640625 C -69.835938 -58.648438 -68.039062 -61.15625 -65.625 -63.15625 C -64.382812 -64.09375 -63 -64.929688 -61.46875 -65.671875 C -59.945312 -66.410156 -58.242188 -66.984375 -56.359375 -67.390625 Z M -13.515625 -20.046875 C -13.335938 -20.046875 -13.21875 -20.0625 -13.15625 -20.09375 C -13.101562 -20.125 -13.078125 -20.140625 -13.078125 -20.140625 L -13.078125 -44.6875 C -13.078125 -45.695312 -13.132812 -46.640625 -13.25 -47.515625 C -13.363281 -48.398438 -13.539062 -49.195312 -13.78125 -49.90625 C -14.3125 -51.257812 -15.101562 -52.347656 -16.15625 -53.171875 C -17.34375 -54.054688 -18.875 -54.675781 -20.75 -55.03125 C -21.757812 -55.207031 -22.863281 -55.351562 -24.0625 -55.46875 C -25.269531 -55.582031 -26.613281 -55.640625 -28.09375 -55.640625 L -44.609375 -55.640625 C -46.078125 -55.640625 -47.429688 -55.582031 -48.671875 -55.46875 C -49.910156 -55.351562 -51.03125 -55.207031 -52.03125 -55.03125 C -53.914062 -54.675781 -55.414062 -54.054688 -56.53125 -53.171875 C -57.59375 -52.460938 -58.390625 -51.375 -58.921875 -49.90625 C -59.441406 -48.488281 -59.703125 -46.75 -59.703125 -44.6875 L -59.703125 -20.234375 C -59.703125 -20.109375 -59.53125 -20.046875 -59.1875 -20.046875 Z M -13.515625 -20.046875 "/></g></g></g><g fill="#191919" fill-opacity="1"><g transform="translate(398.086668, 753.487689)"><g><path d="M -43.453125 -49.734375 C -43.453125 -54.328125 -41.832031 -57.828125 -38.59375 -60.234375 C -35.414062 -62.535156 -30.941406 -63.6875 -25.171875 -63.6875 L -17.40625 -63.6875 C -12.332031 -63.6875 -8.179688 -62.566406 -4.953125 -60.328125 C -1.648438 -58.035156 0 -54.441406 0 -49.546875 L 0 -9.71875 C 0 -9.300781 -0.160156 -8.769531 -0.484375 -8.125 C -0.804688 -7.476562 -1.644531 -7.15625 -3 -7.15625 L -10.0625 -7.15625 C -11.414062 -7.15625 -12.253906 -7.476562 -12.578125 -8.125 C -12.910156 -8.769531 -13.078125 -9.300781 -13.078125 -9.71875 L -13.078125 -47.4375 C -13.078125 -48.195312 -13.207031 -48.738281 -13.46875 -49.0625 C -13.738281 -49.382812 -13.988281 -49.632812 -14.21875 -49.8125 C -15.101562 -50.34375 -16.34375 -50.609375 -17.9375 -50.609375 L -25.53125 -50.609375 C -27.707031 -50.609375 -29.0625 -50.253906 -29.59375 -49.546875 C -30.125 -48.835938 -30.390625 -48.160156 -30.390625 -47.515625 L -30.390625 -21.015625 C -30.390625 -19.191406 -30.625 -17.320312 -31.09375 -15.40625 C -31.5625 -13.5 -32.707031 -11.867188 -34.53125 -10.515625 C -37.769531 -8.210938 -42.484375 -7.0625 -48.671875 -7.0625 L -55.375 -7.0625 C -60.5625 -7.0625 -64.742188 -8.210938 -67.921875 -10.515625 C -71.160156 -12.804688 -72.78125 -16.367188 -72.78125 -21.203125 L -72.78125 -59.265625 C -72.78125 -59.617188 -72.617188 -60.117188 -72.296875 -60.765625 C -71.972656 -61.410156 -71.132812 -61.734375 -69.78125 -61.734375 L -62.71875 -61.734375 C -61.363281 -61.734375 -60.519531 -61.410156 -60.1875 -60.765625 C -59.863281 -60.117188 -59.703125 -59.617188 -59.703125 -59.265625 L -59.703125 -23.3125 C -59.703125 -22.550781 -59.582031 -22.007812 -59.34375 -21.6875 C -59.113281 -21.363281 -58.851562 -21.113281 -58.5625 -20.9375 C -57.613281 -20.46875 -56.378906 -20.234375 -54.859375 -20.234375 L -48.3125 -20.234375 C -46.132812 -20.234375 -44.78125 -20.570312 -44.25 -21.25 C -43.71875 -21.925781 -43.453125 -22.585938 -43.453125 -23.234375 Z M -43.453125 -49.734375 "/></g></g></g><g fill="#191919" fill-opacity="1"><g transform="translate(398.086668, 678.320904)"><g><path d="M -72.78125 -68.09375 C -72.78125 -68.507812 -72.617188 -69.039062 -72.296875 -69.6875 C -71.972656 -70.332031 -71.132812 -70.65625 -69.78125 -70.65625 L -62.890625 -70.65625 C -61.421875 -70.65625 -60.519531 -70.332031 -60.1875 -69.6875 C -59.863281 -69.039062 -59.703125 -68.507812 -59.703125 -68.09375 L -59.703125 -45.40625 L -3 -45.40625 C -1.644531 -45.40625 -0.804688 -45.09375 -0.484375 -44.46875 C -0.160156 -43.851562 0 -43.335938 0 -42.921875 L 0 -34.796875 C 0 -34.441406 -0.160156 -33.941406 -0.484375 -33.296875 C -0.804688 -32.648438 -1.644531 -32.328125 -3 -32.328125 L -59.703125 -32.328125 L -59.703125 -9.625 C -59.703125 -9.21875 -59.863281 -8.6875 -60.1875 -8.03125 C -60.519531 -7.382812 -61.421875 -7.0625 -62.890625 -7.0625 L -69.78125 -7.0625 C -71.132812 -7.0625 -71.972656 -7.382812 -72.296875 -8.03125 C -72.617188 -8.6875 -72.78125 -9.21875 -72.78125 -9.625 Z M -72.78125 -68.09375 "/></g></g></g><g fill="#191919" fill-opacity="1"><g transform="translate(398.086668, 596.176241)"><g><path d="M -72.78125 -68.09375 C -72.78125 -68.507812 -72.617188 -69.023438 -72.296875 -69.640625 C -71.972656 -70.265625 -71.132812 -70.578125 -69.78125 -70.578125 L -27.640625 -70.578125 C -25.171875 -70.578125 -22.875 -70.488281 -20.75 -70.3125 C -18.632812 -70.132812 -16.722656 -69.835938 -15.015625 -69.421875 C -11.367188 -68.597656 -8.484375 -67.332031 -6.359375 -65.625 C -4.117188 -63.914062 -2.46875 -61.617188 -1.40625 -58.734375 C -0.46875 -56.085938 0 -52.757812 0 -48.75 L 0 -28.890625 C 0 -24.878906 -0.46875 -21.550781 -1.40625 -18.90625 C -1.9375 -17.550781 -2.613281 -16.285156 -3.4375 -15.109375 C -4.269531 -13.929688 -5.242188 -12.925781 -6.359375 -12.09375 C -8.597656 -10.269531 -11.484375 -8.976562 -15.015625 -8.21875 C -16.722656 -7.800781 -18.632812 -7.503906 -20.75 -7.328125 C -22.875 -7.148438 -25.171875 -7.0625 -27.640625 -7.0625 L -69.78125 -7.0625 C -71.132812 -7.0625 -71.972656 -7.382812 -72.296875 -8.03125 C -72.617188 -8.6875 -72.78125 -9.21875 -72.78125 -9.625 L -72.78125 -17.671875 C -72.78125 -18.078125 -72.617188 -18.585938 -72.296875 -19.203125 C -71.972656 -19.828125 -71.132812 -20.140625 -69.78125 -20.140625 L -26.234375 -20.140625 C -24.941406 -20.140625 -23.71875 -20.179688 -22.5625 -20.265625 C -21.414062 -20.359375 -20.429688 -20.460938 -19.609375 -20.578125 C -18.015625 -20.929688 -16.691406 -21.429688 -15.640625 -22.078125 C -14.753906 -22.785156 -14.101562 -23.671875 -13.6875 -24.734375 C -13.507812 -25.316406 -13.363281 -25.988281 -13.25 -26.75 C -13.132812 -27.519531 -13.078125 -28.378906 -13.078125 -29.328125 L -13.078125 -48.40625 C -13.078125 -49.34375 -13.132812 -50.191406 -13.25 -50.953125 C -13.363281 -51.722656 -13.507812 -52.40625 -13.6875 -53 C -14.101562 -54.0625 -14.753906 -54.941406 -15.640625 -55.640625 C -16.109375 -55.941406 -16.679688 -56.222656 -17.359375 -56.484375 C -18.035156 -56.753906 -18.785156 -56.945312 -19.609375 -57.0625 C -20.429688 -57.175781 -21.414062 -57.273438 -22.5625 -57.359375 C -23.71875 -57.453125 -24.941406 -57.5 -26.234375 -57.5 L -69.78125 -57.5 C -71.132812 -57.5 -71.972656 -57.804688 -72.296875 -58.421875 C -72.617188 -59.046875 -72.78125 -59.5625 -72.78125 -59.96875 Z M -72.78125 -68.09375 "/></g></g></g><g fill="#191919" fill-opacity="1"><g transform="translate(398.086668, 514.11991)"><g><path d="M -56.359375 -67.390625 C -52.640625 -68.273438 -48.28125 -68.71875 -43.28125 -68.71875 L -29.40625 -68.71875 C -24.40625 -68.71875 -20.050781 -68.273438 -16.34375 -67.390625 C -14.519531 -66.984375 -12.828125 -66.410156 -11.265625 -65.671875 C -9.703125 -64.929688 -8.332031 -64.09375 -7.15625 -63.15625 C -4.675781 -61.207031 -2.847656 -58.703125 -1.671875 -55.640625 C -0.492188 -52.640625 0.09375 -49.078125 0.09375 -44.953125 L 0.09375 -14.75 C 0.09375 -13.394531 -0.242188 -12.113281 -0.921875 -10.90625 C -1.597656 -9.695312 -2.523438 -8.738281 -3.703125 -8.03125 C -4.535156 -7.5625 -5.453125 -7.238281 -6.453125 -7.0625 L -66.78125 -7.15625 C -67.132812 -7.269531 -67.5 -7.398438 -67.875 -7.546875 C -68.257812 -7.691406 -68.628906 -7.851562 -68.984375 -8.03125 C -71.273438 -9.445312 -72.507812 -11.476562 -72.6875 -14.125 L -72.78125 -14.125 L -72.78125 -44.953125 C -72.78125 -49.015625 -72.191406 -52.578125 -71.015625 -55.640625 C -69.835938 -58.648438 -68.039062 -61.15625 -65.625 -63.15625 C -64.382812 -64.09375 -63 -64.929688 -61.46875 -65.671875 C -59.945312 -66.410156 -58.242188 -66.984375 -56.359375 -67.390625 Z M -13.515625 -20.046875 C -13.335938 -20.046875 -13.21875 -20.0625 -13.15625 -20.09375 C -13.101562 -20.125 -13.078125 -20.140625 -13.078125 -20.140625 L -13.078125 -44.6875 C -13.078125 -45.695312 -13.132812 -46.640625 -13.25 -47.515625 C -13.363281 -48.398438 -13.539062 -49.195312 -13.78125 -49.90625 C -14.3125 -51.257812 -15.101562 -52.347656 -16.15625 -53.171875 C -17.34375 -54.054688 -18.875 -54.675781 -20.75 -55.03125 C -21.757812 -55.207031 -22.863281 -55.351562 -24.0625 -55.46875 C -25.269531 -55.582031 -26.613281 -55.640625 -28.09375 -55.640625 L -44.609375 -55.640625 C -46.078125 -55.640625 -47.429688 -55.582031 -48.671875 -55.46875 C -49.910156 -55.351562 -51.03125 -55.207031 -52.03125 -55.03125 C -53.914062 -54.675781 -55.414062 -54.054688 -56.53125 -53.171875 C -57.59375 -52.460938 -58.390625 -51.375 -58.921875 -49.90625 C -59.441406 -48.488281 -59.703125 -46.75 -59.703125 -44.6875 L -59.703125 -20.234375 C -59.703125 -20.109375 -59.53125 -20.046875 -59.1875 -20.046875 Z M -13.515625 -20.046875 "/></g></g></g><g fill="#191919" fill-opacity="1"><g transform="translate(398.086668, 433.918439)"><g><path d="M -72.78125 -17.671875 C -72.78125 -18.023438 -72.601562 -18.523438 -72.25 -19.171875 C -71.894531 -19.816406 -71.039062 -20.140625 -69.6875 -20.140625 L -3 -20.140625 C -1.644531 -20.140625 -0.789062 -19.816406 -0.4375 -19.171875 C -0.0820312 -18.523438 0.09375 -18.023438 0.09375 -17.671875 L 0.09375 -9.546875 C 0.09375 -9.191406 -0.0820312 -8.6875 -0.4375 -8.03125 C -0.789062 -7.382812 -1.644531 -7.0625 -3 -7.0625 L -69.6875 -7.0625 C -71.039062 -7.0625 -71.894531 -7.382812 -72.25 -8.03125 C -72.601562 -8.6875 -72.78125 -9.191406 -72.78125 -9.546875 Z M -72.78125 -17.671875 "/></g></g></g><g fill="#191919" fill-opacity="1"><g transform="translate(398.086668, 402.297171)"><g><path d="M -66.328125 -67.21875 C -64.210938 -68.925781 -61.328125 -70.191406 -57.671875 -71.015625 C -55.960938 -71.367188 -54.046875 -71.648438 -51.921875 -71.859375 C -49.804688 -72.066406 -47.546875 -72.171875 -45.140625 -72.171875 L -27.640625 -72.171875 C -25.171875 -72.171875 -22.875 -72.066406 -20.75 -71.859375 C -18.632812 -71.648438 -16.722656 -71.367188 -15.015625 -71.015625 C -11.421875 -70.191406 -8.503906 -68.925781 -6.265625 -67.21875 C -3.972656 -65.394531 -2.351562 -63.097656 -1.40625 -60.328125 C -0.40625 -57.503906 0.09375 -54.175781 0.09375 -50.34375 L 0.09375 -28.796875 C 0.09375 -24.910156 -0.40625 -21.613281 -1.40625 -18.90625 C -2.351562 -16.132812 -4.003906 -13.835938 -6.359375 -12.015625 C -8.648438 -10.242188 -11.535156 -8.976562 -15.015625 -8.21875 C -16.722656 -7.800781 -18.632812 -7.503906 -20.75 -7.328125 C -22.875 -7.148438 -25.171875 -7.0625 -27.640625 -7.0625 L -45.140625 -7.0625 C -50.203125 -7.0625 -54.378906 -7.445312 -57.671875 -8.21875 C -61.148438 -8.976562 -64.035156 -10.242188 -66.328125 -12.015625 C -68.566406 -13.835938 -70.21875 -16.132812 -71.28125 -18.90625 C -72.28125 -21.726562 -72.78125 -25.023438 -72.78125 -28.796875 L -72.78125 -50.34375 C -72.78125 -54.175781 -72.28125 -57.503906 -71.28125 -60.328125 C -70.21875 -63.097656 -68.566406 -65.394531 -66.328125 -67.21875 Z M -46.640625 -59 C -47.929688 -59 -49.117188 -58.96875 -50.203125 -58.90625 C -51.296875 -58.851562 -52.285156 -58.738281 -53.171875 -58.5625 C -54.816406 -58.320312 -56.140625 -57.820312 -57.140625 -57.0625 C -57.972656 -56.46875 -58.625 -55.582031 -59.09375 -54.40625 C -59.269531 -53.820312 -59.414062 -53.160156 -59.53125 -52.421875 C -59.644531 -51.679688 -59.703125 -50.84375 -59.703125 -49.90625 L -59.703125 -29.234375 C -59.703125 -28.296875 -59.644531 -27.457031 -59.53125 -26.71875 C -59.414062 -25.976562 -59.269531 -25.316406 -59.09375 -24.734375 C -58.625 -23.554688 -57.972656 -22.671875 -57.140625 -22.078125 C -56.671875 -21.722656 -56.097656 -21.425781 -55.421875 -21.1875 C -54.742188 -20.957031 -53.992188 -20.753906 -53.171875 -20.578125 C -52.285156 -20.460938 -51.296875 -20.359375 -50.203125 -20.265625 C -49.117188 -20.179688 -47.929688 -20.140625 -46.640625 -20.140625 L -26.0625 -20.140625 C -24.757812 -20.140625 -23.5625 -20.179688 -22.46875 -20.265625 C -21.382812 -20.359375 -20.398438 -20.460938 -19.515625 -20.578125 C -18.753906 -20.753906 -18.035156 -20.957031 -17.359375 -21.1875 C -16.679688 -21.425781 -16.109375 -21.722656 -15.640625 -22.078125 C -14.691406 -22.671875 -14.039062 -23.554688 -13.6875 -24.734375 C -13.28125 -25.796875 -13.078125 -27.296875 -13.078125 -29.234375 L -13.078125 -49.90625 C -13.078125 -51.84375 -13.28125 -53.34375 -13.6875 -54.40625 C -14.039062 -55.582031 -14.691406 -56.46875 -15.640625 -57.0625 C -16.515625 -57.769531 -17.804688 -58.269531 -19.515625 -58.5625 C -20.398438 -58.738281 -21.382812 -58.851562 -22.46875 -58.90625 C -23.5625 -58.96875 -24.757812 -59 -26.0625 -59 Z M -46.640625 -59 "/></g></g></g></svg>